<svg width="14" height="10" viewBox="0 0 14 10" fill="none" xmlns="http://www.w3.org/2000/svg">
<path fill-rule="evenodd" clip-rule="evenodd" d="M0.292893 4.29289C0.683417 3.90237 1.31658 3.90237 1.70711 4.29289L5.70711 8.29289C6.09763 8.68342 6.09763 9.31658 5.70711 9.70711C5.31658 10.0976 4.68342 10.0976 4.29289 9.70711L0.292893 5.70711C-0.097631 5.31658 -0.097631 4.68342 0.292893 4.29289Z" fill="white"/>
<path fill-rule="evenodd" clip-rule="evenodd" d="M13.7071 0.292893C14.0976 0.683417 14.0976 1.31658 13.7071 1.70711L5.70711 9.70711C5.31658 10.0976 4.68342 10.0976 4.29289 9.70711C3.90237 9.31658 3.90237 8.68342 4.29289 8.29289L12.2929 0.292893C12.6834 -0.097631 13.3166 -0.097631 13.7071 0.292893Z" fill="white"/>
</svg>
